<svg xmlns="http://www.w3.org/2000/svg" height="235.947" width="931.28">
  <path d="M94.273 73.281c7.38-5.033 16.892-3.052 15.298-1.538-3.034 2.885 1.005 2.036 1.44 7.365.322 3.928-.962 6.095-2.065 7.325-2.3.303-5.104.866-8.473 1.96a42.889 42.889 0 0 0-5.25 2.091 12.592 12.592 0 0 1-1.352-1.025c-5.214-4.51-5.04-12.471.402-16.178zm44.087 31.092c1.339-1.039 7.424-2.994 13.06-3.664 2.96-.352 7.173-.548 8.076-.048 1.783.986 1.785 4.038.564 6.858-1.777 4.1-4.3 8.617-7.15 8.994-4.649.612-9.054-1.902-14.078-5.658-1.793-1.339-2.893-4.606-.472-6.482zm8.487-39.877c6.87 3.195 5.972 9.276 6.158 12.847.054 1.025.036 1.718-.049 2.196-.955-.516-2.456-.892-4.836-.79a17.48 17.48 0 0 0-2.037.219c-2.532-1.356-4.047-4.019-5.431-6.84-.127-.26-.225-.493-.319-.721-.038-.104-.088-.219-.12-.312l-.049-.142c-.761-2.412-.253-2.894.075-3.638.329-.758 1.57-1.387-.26-2.022a3.718 3.718 0 0 0-.576-.13c1.208-1.504 4.85-1.872 7.444-.667zm-37.448 72.712c-7.404-4.755-15.059-11.571-18.406-15.341-.563-.422-.47-2.303-.47-2.303 3.02 2.352 15.56 11.31 28.815 15.401 4.672 1.444 11.849 1.991 18.073-1.541 4.76-2.7 10.486-7.4 13.898-12.243l.627 1.087c-.023.722-1.599 4.227-2.396 5.637 1.444.831 2.525 1.056 4.135 1.5l10.98-1.712c3.933-6.363 6.762-16.63 3.756-26.398-1.724-5.603-10.679-16.759-11.322-17.376-2.254-2.162.375-10.522-4.086-19.634-4.72-9.638-17.003-19.696-22.344-24.073 1.576 1.15 11.261 5.05 15.77 10.497.423-.564.599-3.486.986-4.226-3.875-5.072-4.176-14.108-4.176-16.522 0-4.425-2.255-9.445-2.255-9.445s3.881 3.067 4.881 8.353c1.183 6.262 3.708 11.19 7.046 15.359 6.314 7.868 12.014 11.907 14.902 9 3.448-3.496-3.496-19.119-12.377-27.841-10.348-10.168-13.064-8.855-19.141-6.686-4.849 1.727-7.468 15.5-20.11 15.227-2.145-.245-7.658-.385-10.384-.36a101.475 101.475 0 0 1 2.637-3.516s-4.24 1.704-7.851 3.868l-.282-.424c1.22-2.57 2.532-4.19 2.532-4.19s-3.386 2.038-6.477 4.473c.564-3.064 2.691-5.014 2.691-5.014s-4.28.778-9.736 6.775c-6.2 1.69-7.692 2.81-12.628 4.993-8.027-1.752-11.819-4.578-15.424-9.784-2.753-3.972-7.64-4.574-12.647-2.524-7.283 3.022-16.504 7.148-16.504 7.148s2.998-.114 6.134.022c-4.285 1.625-8.41 3.857-8.41 3.857s2.008-.07 4.487-.027c-1.713 1.423-2.66 2.102-4.284 3.18-3.924 2.844-7.104 6.134-7.104 6.134s2.664-1.215 5.051-1.894c-1.668 3.832-4.98 6.65-4.372 11.339.586 4.284 5.84 13.1 12.624 18.512.586.47 9.855 9.04 16.843 5.521 6.988-3.513 9.74-6.649 10.889-11.453 1.352-5.521.582-9.687-2.298-21.664-.951-3.953-3.428-12.09-4.628-15.981l.27-.199c2.284 4.824 8.131 17.536 10.49 26.07 3.678 13.315 2.526 20.07.845 22.545-5.073 7.468-18.083 8.454-24 4.314-.903 14.338 2.298 20.648 3.382 23.828-.542 3.654 1.826 10.44 1.826 10.44s.269-3.087 1.352-4.712c.291 3.628 2.119 7.935 2.119 7.935s-.11-2.66.721-4.958c1.172 1.981 2.035 2.457 3.14 3.945 1.105 3.875 3.334 6.71 3.334 6.71s-.366-2.078-.164-4.244c5.425 5.214 6.36 12.819 6.9 18.658 1.52 16.07-25.331 28.838-30.538 38.888-3.942 5.948-6.3 15.372.376 20.917 16.147 13.408 9.947 17.1 18.026 22.99 11.084 8.08 24.962 4.462 29.684-2.114 6.575-9.159 4.884-17.8 2.442-25.879-1.908-6.318-7.093-16.816-13.517-20.88-6.553-4.15-12.927-4.929-18.33-4.37l.5-.572c7.77-1.546 15.887-.692 21.766 3.088 6.673 4.29 12.775 11.65 15.968 22.922 3.62-.518 4.134-.752 7.442-1.222l-7.46-58.076zm4.307 72.796l-.86-8.053 16.776-25.592 19.043 5.565 16.382-27.353 19.632 12.95 14.92-31.281 5.301 56.97zm91.398-85.442l-59.95 10.867c-1.483 1.916-5.155 5.275-6.922 6.153-7.573 3.813-12.69 2.707-17.111 1.558-2.84-.721-4.487-1.128-6.852-2.19l-14.632 2.01 8.882 74.103 102.696-18.507-6.111-73.994" fill="#fff"/>
  <path d="M140.165 70.956c.018.045.031.09.05.141.032.095.081.21.12.311.093.228.192.461.318.721 1.384 2.823 2.899 5.484 5.432 6.842a17.143 17.143 0 0 1 2.036-.219c2.38-.103 3.883.273 4.838.788.085-.475.102-1.17.049-2.195-.188-3.57.71-9.652-6.159-12.846-2.593-1.207-6.237-.838-7.445.666.217.034.419.075.576.13 1.832.634.59 1.264.26 2.021-.327.745-.836 1.227-.075 3.64zm-1.333 39.903c5.025 3.756 9.43 6.27 14.081 5.658 2.85-.377 5.372-4.895 7.15-8.994 1.221-2.82 1.218-5.872-.564-6.859-.903-.499-5.118-.303-8.076.05-5.638.669-11.723 2.623-13.062 3.662-2.421 1.876-1.321 5.144.471 6.483zm-44.56-37.576c-5.441 3.708-5.615 11.669-.402 16.178.518.448.95.763 1.352 1.027a43.165 43.165 0 0 1 5.25-2.092c3.37-1.095 6.173-1.657 8.474-1.959 1.103-1.232 2.387-3.4 2.065-7.326-.435-5.331-4.474-4.48-1.44-7.367 1.594-1.512-7.919-3.495-15.299 1.539zm90.41 94.245l-19.633-12.95-16.381 27.354-19.046-5.567-16.775 25.595.86 8.053 91.198-16.796-5.301-56.972zm-85.046-24.563l14.634-2.008c2.365 1.062 4.011 1.466 6.852 2.188 4.42 1.15 9.537 2.255 17.111-1.56 1.767-.874 5.439-4.234 6.923-6.15l59.952-10.868 6.112 73.997-102.701 18.508zm111.359-26.664l-5.919 1.128L193.708-.003 0 22.452l23.862 193.616 22.68-3.286c-1.812-2.587-4.633-5.717-9.449-9.718-6.676-5.543-4.317-14.968-.375-20.917 5.206-10.048 32.059-22.823 30.54-38.892-.542-5.838-1.476-13.444-6.9-18.657-.203 2.166.162 4.245.162 4.245s-2.228-2.836-3.333-6.711c-1.106-1.488-1.968-1.964-3.14-3.946-.832 2.3-.722 4.959-.722 4.959s-1.828-4.307-2.118-7.936c-1.084 1.625-1.352 4.712-1.352 4.712s-2.37-6.786-1.828-10.44c-1.083-3.18-4.284-9.49-3.382-23.828 5.918 4.139 18.929 3.154 24.002-4.316 1.681-2.474 2.833-9.229-.845-22.546-2.359-8.534-8.206-21.247-10.49-26.068l-.27.196c1.2 3.889 3.676 12.028 4.627 15.982 2.88 11.978 3.651 16.143 2.3 21.666-1.15 4.804-3.903 7.94-10.89 11.453-6.99 3.519-16.259-5.052-16.845-5.521-6.786-5.414-12.039-14.228-12.625-18.514-.607-4.689 2.704-7.508 4.373-11.338-2.386.677-5.05 1.893-5.05 1.893s3.178-3.29 7.102-6.135c1.625-1.078 2.572-1.756 4.285-3.18-2.48-.042-4.487.027-4.487.027s4.126-2.232 8.41-3.857c-3.135-.136-6.133-.022-6.133-.022s9.22-4.126 16.504-7.148c5.007-2.05 9.895-1.448 12.647 2.524 3.607 5.206 7.398 8.032 15.425 9.784 4.937-2.182 6.429-3.301 12.629-4.993 5.455-5.997 9.736-6.775 9.736-6.775s-2.127 1.95-2.69 5.015c3.09-2.436 6.477-4.473 6.477-4.473s-1.312 1.618-2.532 4.19l.281.423c3.612-2.164 7.852-3.868 7.852-3.868s-1.215 1.532-2.637 3.516c2.726-.024 8.24.115 10.384.361 12.643.272 15.263-13.501 20.111-15.228 6.077-2.17 8.795-3.482 19.143 6.686 8.881 8.722 15.826 24.346 12.378 27.842-2.889 2.907-8.589-1.132-14.904-9.001-3.338-4.17-5.864-9.097-7.046-15.359-.999-5.286-4.88-8.353-4.88-8.353s2.254 5.02 2.254 9.445c0 2.414.302 11.45 4.176 16.522-.388.74-.564 3.664-.986 4.228-4.51-5.447-14.195-9.35-15.772-10.499 5.342 4.377 17.626 14.436 22.346 24.075 4.462 9.113 1.832 17.474 4.087 19.636.643.616 9.597 11.772 11.321 17.376 3.008 9.768.179 20.036-3.756 26.4l-10.98 1.712c-1.609-.445-2.69-.67-4.134-1.502.796-1.41 2.372-4.914 2.394-5.636l-.625-1.088c-3.412 4.843-9.14 9.545-13.899 12.244-6.225 3.532-13.403 2.986-18.074 1.542-13.256-4.092-25.797-13.05-28.818-15.402 0 0-.092 1.88.472 2.303 3.346 3.77 11.002 10.586 18.406 15.341l-15.782 1.736 7.46 58.079c-3.308.47-3.822.704-7.441 1.221-3.194-11.273-9.296-18.633-15.97-22.922-5.88-3.782-13.997-4.632-21.768-3.09l-.5.575c5.405-.56 11.78.22 18.333 4.368 6.423 4.065 11.61 14.563 13.517 20.883 2.442 8.078 4.133 16.72-2.442 25.878-4.676 6.513-18.328 10.107-29.358 2.327 2.947 4.732 6.925 8.612 12.284 9.339 7.964 1.078 15.52-.301 20.714-5.636 4.444-4.564 6.795-14.11 6.174-24.16l7.026-1.015 2.536 18.036 116.3-13.999-9.487-92.532" fill="#703ba0"/>
  <path d="M278.488 151.952h22.119c20.83 0 31.245-12.239 31.245-36.73 0-20.847-10.415-31.28-31.245-31.28h-22.119zm24.927 16.133H259.88V67.86h43.534c31.362 0 47.061 15.798 47.061 47.379 0 35.226-15.699 52.847-47.061 52.847M369.97 168.085h-19.11L393.492 67.86h20.01l43.551 100.226h-20.01l-12.64-27.336h-32.166l6.387-16.114h20.864l-16.435-37.65-33.082 81.1M446.539 67.859h76.2v16.117h-28.79v84.11h-18.606v-84.11h-28.804V67.859M532.303 168.085h-19.108L555.827 67.86h20.008l43.552 100.226h-20.028l-12.64-27.336h-32.166l6.387-16.114h20.864l-16.433-37.65-33.068 81.1M650.348 151.952h22.119c20.829 0 31.261-12.239 31.261-36.73 0-20.847-10.432-31.28-31.261-31.28h-22.119zm24.928 16.133H631.74V67.86h43.536c31.379 0 47.061 15.798 47.061 47.379 0 35.226-15.682 52.847-47.061 52.847M785.38 152.653c20.212 0 30.328-11.653 30.328-34.974 0-22.954-10.116-34.439-30.328-34.439-20.748 0-31.11 11.485-31.11 34.44 0 23.32 10.362 34.973 31.11 34.973zm-50.439-34.54c0-33.986 16.82-50.973 50.439-50.973 33.103 0 49.637 16.987 49.637 50.974 0 33.79-16.534 50.69-49.637 50.69-32.13 0-48.935-16.9-50.439-50.69M912.672 127.528v23.47c-4.297 1.12-8.14 1.673-11.52 1.673-22.752 0-34.121-12.036-34.121-36.095 0-22.22 12.054-33.319 36.162-33.319 10.063 0 19.424 1.872 28.087 5.616V72.04c-8.663-3.259-18.49-4.899-29.492-4.899-36.044 0-54.081 16.467-54.081 49.436 0 34.808 17.721 52.228 53.161 52.228 12.19 0 22.317-1.773 30.412-5.332v-52.43h-30.06l-6.284 16.486h17.736" fill="#703ba0" fill-rule="evenodd"/>
</svg>
