<?xml version="1.0" encoding="UTF-8" standalone="no"?>
<!-- Created with Inkscape (http://www.inkscape.org/) -->

<svg
   xmlns:dc="http://purl.org/dc/elements/1.1/"
   xmlns:cc="http://creativecommons.org/ns#"
   xmlns:rdf="http://www.w3.org/1999/02/22-rdf-syntax-ns#"
   xmlns:svg="http://www.w3.org/2000/svg"
   xmlns="http://www.w3.org/2000/svg"
   version="1.1"
   width="516.78314"
   height="471.15274"
   id="svg3004"
   xml:space="preserve"><metadata
     id="metadata3010"><rdf:RDF><cc:Work
         rdf:about=""><dc:format>image/svg+xml</dc:format><dc:type
           rdf:resource="http://purl.org/dc/dcmitype/StillImage" /><dc:title></dc:title></cc:Work></rdf:RDF></metadata><defs
     id="defs3008"><clipPath
       id="clipPath3018"><path
         d="M 0,560 960,560 960,0 0,0 0,560 z"
         id="path3020" /></clipPath></defs><g
     transform="matrix(1.25,0,0,-1.25,-341.646,575.106)"
     id="g3012"><g
       id="g3014"><g
         clip-path="url(#clipPath3018)"
         id="g3016"><g
           transform="translate(296.8218,100.4424)"
           id="g3022"><path
             d="m 0,0 c 6.264,-2.832 12.55,-4.248 18.855,-4.248 6.041,0 11.856,1.34 17.443,4.025 2.378,1.131 4.284,1.83 5.721,2.096 2.491,0.489 4.133,1.059 4.925,1.696 1.851,1.555 3.438,3.687 4.759,6.407 1.321,2.719 1.984,5.175 1.984,7.365 0,1.736 -0.473,3.221 -1.416,4.448 -0.946,1.229 -2.076,1.842 -3.401,1.842 -0.904,0 -2.078,-0.68 -3.51,-2.038 -1.664,-1.629 -3.993,-2.947 -6.994,-3.97 -2.999,-1.016 -6.031,-1.528 -9.094,-1.528 -8.301,0 -14.682,3.611 -19.136,10.826 -3.286,5.399 -4.931,11.35 -4.931,17.847 0,4.721 1.145,8.49 3.432,11.305 2.278,2.812 5.366,4.221 9.255,4.221 4.004,0 7.836,-1.286 11.498,-3.854 1.472,-1.059 2.716,-2.239 3.736,-3.544 1.019,-1.303 2.34,-3.443 3.966,-6.428 1.135,-2.119 2.304,-3.592 3.507,-4.421 1.214,-0.832 2.778,-1.246 4.702,-1.246 2.113,0 4.024,0.566 5.72,1.7 3.136,2.116 4.701,5.459 4.701,10.032 0,6.493 -1.812,11.933 -5.435,16.319 -1.47,1.814 -3.189,2.718 -5.152,2.718 -0.606,0 -1.152,-0.055 -1.643,-0.169 -1.512,-0.339 -2.605,-0.512 -3.284,-0.512 -0.945,0 -2.625,0.572 -5.042,1.701 -5.136,2.417 -10.456,3.627 -15.972,3.627 -5.887,0 -11.607,-1.21 -17.161,-3.627 -7.283,-3.172 -13.192,-7.76 -17.722,-13.773 -5.209,-6.909 -7.816,-14.559 -7.816,-22.949 0,-7.212 2.078,-14.125 6.233,-20.736 C -13.05,8.333 -7.288,3.286 0,0"
             id="path3024"
             style="fill:#00a8e9;fill-opacity:1;fill-rule:nonzero;stroke:none" /></g><g
           transform="translate(359.2832,157.5625)"
           id="g3026"><path
             d="m 0,0 c 2.117,-1.286 3.441,-3.249 3.969,-5.893 0.525,-2.645 0.788,-8.579 0.788,-17.792 0,-9.066 -0.298,-16.054 -0.908,-20.963 -0.334,-2.873 -1.241,-4.627 -2.717,-5.276 -1.582,-0.678 -2.61,-1.261 -3.086,-1.75 -0.47,-0.495 -0.705,-1.194 -0.705,-2.1 0,-1.134 0.434,-2.22 1.303,-3.26 0.865,-1.036 1.982,-1.801 3.34,-2.295 2.942,-1.097 8.057,-1.645 15.348,-1.645 6.453,0 11.042,0.419 13.759,1.25 1.472,0.416 2.653,1.129 3.543,2.153 0.886,1.021 1.327,2.153 1.327,3.401 0,0.98 -0.234,1.737 -0.707,2.266 -0.473,0.526 -1.406,1.092 -2.803,1.702 -1.623,0.714 -2.887,1.74 -3.133,3.057 -0.245,1.32 -0.695,6.01 -0.695,14.051 l 0,18.19 c 0,5.632 0.684,11.822 1.173,18.591 0.379,4.343 0.736,7.12 0.736,8.325 0,3.707 -1.408,5.556 -4.392,5.556 -1.886,0 -4.869,-0.36 -9.022,-1.08 C 12.97,15.772 9.61,15.018 7.001,14.222 3.115,13.057 0.291,11.776 -1.482,10.396 -3.256,9.017 -4.139,7.403 -4.139,5.553 c 0,-1.166 0.3,-2.16 0.881,-2.975 C -2.674,1.765 -1.583,0.905 0,0"
             id="path3028"
             style="fill:#00a8e9;fill-opacity:1;fill-rule:nonzero;stroke:none" /></g><g
           transform="translate(425.1172,139.29)"
           id="g3030"><path
             d="m 0,0 c 1,1.226 2.328,1.841 3.993,1.841 2.227,-0.077 3.964,-1.397 5.21,-3.969 1.207,-2.527 2.236,-5.815 3.088,-9.858 0.852,-4.043 1.272,-7.648 1.272,-10.823 0,-4.272 -1.684,-6.402 -5.039,-6.402 -2.646,0 -4.551,1.546 -5.719,4.645 -1.17,3.022 -2.184,6.491 -3.033,10.401 -0.846,3.91 -1.275,6.995 -1.275,9.26 C -1.503,-2.863 -1,-1.229 0,0 m 3.312,-43.096 c 9.249,0 17.465,2.738 24.638,8.218 7.511,5.741 11.267,12.71 11.267,20.907 0,4.687 -1.166,9.183 -3.509,13.49 -2.267,4.118 -5.269,7.458 -9.008,10.029 -5.207,3.59 -11.268,5.384 -18.176,5.384 -9.932,0 -18.366,-2.988 -25.316,-8.955 -6.646,-5.666 -9.965,-12.957 -9.965,-21.873 0,-8.009 2.717,-14.505 8.153,-19.492 5.587,-5.136 12.894,-7.708 21.916,-7.708"
             id="path3032"
             style="fill:#00a8e9;fill-opacity:1;fill-rule:nonzero;stroke:none" /></g><g
           transform="translate(513.252,97.1553)"
           id="g3034"><path
             d="m 0,0 c 0.658,-0.411 1.895,-0.621 3.705,-0.621 4.417,0 8.988,0.547 13.707,1.645 8.042,1.845 12.182,4.475 12.182,7.876 0,1.736 -0.615,3.063 -2.467,3.969 -2.188,1.053 -2.856,2.225 -2.856,3.508 l 0,24.988 c 0,2.611 -0.334,4.818 -0.258,6.636 0.038,1.281 -0.159,2.133 -0.159,2.548 0,4.043 -2.01,6.064 -5.825,6.064 -6.833,0 -13.816,-0.872 -20.836,-2.61 -3.701,-0.905 -5.582,-2.527 -5.582,-4.875 0,-1.733 1.066,-3.173 3.216,-4.301 1.06,-0.569 1.77,-1.069 2.148,-1.502 0.374,-0.435 0.637,-1.127 0.787,-2.07 0.419,-2.267 0.626,-6.497 0.626,-12.694 0,-6.271 -0.421,-10.312 -1.247,-12.125 -0.417,-0.908 -1.153,-1.674 -2.209,-2.293 -1.058,-0.624 -2.076,-0.938 -3.171,-0.938 -4.348,0 -6.453,3.285 -6.453,9.861 l 0,30.711 c 0,1.893 -1.172,2.836 -3.403,2.836 -7.402,0 -14.833,-0.813 -22.227,-2.438 -4.343,-0.946 -6.527,-2.854 -6.527,-5.723 0,-0.796 0.191,-1.418 0.585,-1.872 0.397,-0.451 1.324,-1.058 2.799,-1.809 1.549,-0.873 2.49,-2.071 3.08,-3.605 0.586,-1.525 0.757,-3.917 0.757,-7.167 l 0,-2.603 c 0,-2.191 0.061,-4.834 0.061,-7.935 0,-8.31 1.327,-14.225 3.856,-17.734 2.982,-4.193 8.128,-6.293 15.378,-6.293 4.38,0 8.486,1.305 12.3,3.913 1.928,1.321 3.091,2.085 3.465,2.292 0.378,0.209 0.794,0.313 1.254,0.313 1.242,0 1.957,-1.169 2.152,-3.511 C -1.05,1.231 -0.664,0.419 0,0"
             id="path3036"
             style="fill:#00a8e9;fill-opacity:1;fill-rule:nonzero;stroke:none" /></g><g
           transform="translate(575.626,138.1289)"
           id="g3038"><path
             d="M 0,0 C 1.437,2.604 3.379,3.908 5.836,3.908 7.799,3.835 9.289,3.04 10.311,1.53 c 1.318,-1.928 1.984,-5.801 1.984,-11.62 0,-6.347 -0.562,-10.946 -1.674,-13.796 -1.114,-2.854 -2.9,-4.279 -5.351,-4.279 -2.268,0 -4.061,0.941 -5.38,2.836 -1.852,2.604 -2.774,6.476 -2.774,11.613 0,5.669 0.961,10.242 2.884,13.716 m -19.821,-35.419 c 4.682,-4.343 9.947,-6.516 15.804,-6.516 4.718,0 9.004,1.572 12.853,4.701 1.358,1.135 2.36,1.7 3.002,1.7 1.171,0 1.85,-0.962 2.041,-2.888 0.112,-1.358 0.347,-2.221 0.706,-2.575 0.358,-0.362 1.141,-0.543 2.35,-0.543 5.476,0 10.946,0.705 16.424,2.101 6.079,1.582 9.118,3.886 9.118,6.912 0,1.018 -0.239,1.887 -0.707,2.605 -0.475,0.718 -1.385,1.549 -2.749,2.495 -1.132,0.794 -2.539,1.605 -2.786,2.436 -0.249,0.829 -1.089,2.72 -1.089,5.668 l 0,51.733 c 0,3.096 -0.904,4.649 -4.149,4.649 -3.287,0 -9.402,-1.341 -19.061,-4.025 -5.48,-1.554 -8.034,-3.701 -8.034,-6.462 0,-1.887 1.279,-3.207 3.656,-3.965 1.699,-0.528 2.923,-1.16 3.587,-1.9 0.658,-0.731 1.013,-1.802 1.013,-3.196 0,-3.25 -0.594,-4.876 -1.804,-4.876 -0.337,0 -0.783,0.15 -1.352,0.453 -3.47,1.963 -7.4,2.947 -11.774,2.947 -3.818,0 -7.687,-1.018 -11.609,-3.06 -4.684,-2.459 -8.381,-5.966 -11.1,-10.539 -2.95,-4.95 -4.419,-10.084 -4.419,-15.413 0,-4.536 1.136,-9.009 3.403,-13.433 1.694,-3.397 3.924,-6.403 6.676,-9.009"
             id="path3040"
             style="fill:#00a8e9;fill-opacity:1;fill-rule:nonzero;stroke:none" /></g><g
           transform="translate(648.8516,144.4756)"
           id="g3042"><path
             d="M 0,0 C 1.096,1.36 2.454,2.039 4.082,2.039 5.927,2.002 7.531,1.19 8.896,-0.397 c 1.088,-1.327 2.072,-3.282 2.94,-5.868 0.867,-2.586 1.303,-4.897 1.303,-6.941 0,-1.814 -0.478,-3.285 -1.444,-4.415 -0.962,-1.139 -2.218,-1.702 -3.768,-1.702 -2.606,0 -4.849,1.403 -6.736,4.223 -1.884,2.808 -2.828,6.163 -2.828,10.055 0,2.003 0.541,3.68 1.637,5.045 m -3.284,-33.942 c 2.04,0.222 3.324,0.338 3.853,0.338 1.504,0 2.266,-0.718 2.266,-2.152 0,-1.778 -0.932,-4.122 -2.776,-7.028 -2.003,-3.176 -4.38,-5.664 -7.139,-7.479 -2.225,-1.471 -3.339,-2.61 -3.339,-3.402 0,-1.204 1.812,-2.784 5.437,-4.731 3.623,-1.946 6.589,-2.917 8.891,-2.917 1.358,0 2.981,0.678 4.871,2.038 8.075,5.97 15.079,13.999 21.012,24.084 5.36,9.103 8.039,17.791 8.039,26.065 0,10.236 -4.112,17.643 -12.344,22.213 -6.23,3.434 -13.122,5.155 -20.671,5.155 -9.288,0 -17.199,-2.379 -23.728,-7.135 -6.154,-4.424 -9.233,-10.675 -9.233,-18.758 0,-4.044 0.765,-7.934 2.296,-11.672 1.526,-3.739 3.671,-6.897 6.426,-9.464 3.661,-3.48 8.511,-5.215 14.556,-5.215 0.749,0 1.282,0.021 1.583,0.06"
             id="path3044"
             style="fill:#00a8e9;fill-opacity:1;fill-rule:nonzero;stroke:none" /></g><g
           transform="translate(482.873,389.4287)"
           id="g3046"><path
             d="m 0,0 c -7.084,0 -10.949,-9.35 -10.949,-17.377 0,-13.363 6.012,-34.483 18.679,-34.483 6.669,0 10.107,7.484 10.107,14.974 C 17.837,-25.663 12.467,0 0,0"
             id="path3048"
             style="fill:#00a8e9;fill-opacity:1;fill-rule:evenodd;stroke:none" /></g><g
           transform="translate(524.3213,281.4258)"
           id="g3050"><path
             d="m 0,0 c -6.447,-10.964 -29.663,-45.45 -41.044,-45.45 -6.024,0 -27.937,10.953 -27.937,18.698 0,2.679 3.004,5.622 4.723,6.694 10.105,6.691 21.282,25.932 21.282,36.629 0,3.481 -1.933,5.086 -4.52,5.086 -3.437,0 -6.873,-0.804 -10.314,-0.804 -31.152,0 -45.553,33.687 -45.553,64.163 0,42.782 33.308,62.294 63.607,62.294 32.234,0 64.898,-19.786 64.898,-64.97 C 25.142,51.596 14.392,24.331 0,0 m 138.134,69.91 c -21.976,21.98 -53.225,29.038 -81.151,21.186 -4.724,49.139 -46.127,87.563 -96.504,87.563 -46.524,0 -85.402,-32.776 -94.786,-76.496 -30.654,9.794 -65.578,2.531 -89.895,-21.786 -34.677,-34.679 -34.677,-90.898 0,-125.572 28.763,-28.773 70.722,-36.968 92.593,-36.968 0,0 3.377,0.023 10.388,0.023 l 159.46,0 c 33.017,-0.213 68.704,3.578 99.895,34.762 32.384,32.384 32.384,84.903 0,117.288"
             id="path3052"
             style="fill:#00a8e9;fill-opacity:1;fill-rule:evenodd;stroke:none" /></g></g></g></g></svg>