<?xml version="1.0" encoding="UTF-8"?>
<svg viewBox="0 0 512 388" xmlns="http://www.w3.org/2000/svg" xmlns:xlink="http://www.w3.org/1999/xlink">
    <defs>
        <linearGradient x1="50%" y1="0%" x2="50%" y2="100%" id="cozy-gradient">
            <stop stop-color="#20A8F1" offset="0%"/>
            <stop stop-color="#62C6ED" offset="100%"/>
        </linearGradient>
    </defs>
    <g>
        <path d="M376.45312,387.847244 L135.65952,387.847244 C60.90752,387.847244 0.12288,327.304987 0.12288,252.88231 C0.12288,217.392021 13.84448,183.867192 38.77888,158.499528 C60.6208,136.299003 88.91392,122.479685 119.52128,118.884829 C123.136,88.4049344 137.00096,60.2265617 159.31392,38.4843045 C184.79104,13.6461942 218.44992,0 254.09536,0 C289.73056,0 323.39968,13.6461942 348.8768,38.4741207 C371.0976,60.1247244 384.9216,88.1503412 388.62848,118.467297 C457.6768,124.628451 511.98976,182.563675 511.98976,252.892493 C511.98976,327.304987 451.16416,387.847244 376.44288,387.847244 L376.45312,387.847244 Z" fill="#FFFFFF"/>
        <path d="M376.45312,387.847244 L135.65952,387.847244 C60.90752,387.847244 0.12288,327.304987 0.12288,252.88231 C0.12288,217.392021 13.84448,183.867192 38.77888,158.499528 C60.6208,136.299003 88.91392,122.479685 119.52128,118.884829 C123.136,88.4049344 137.00096,60.2265617 159.31392,38.4843045 C184.79104,13.6461942 218.44992,0 254.09536,0 C289.73056,0 323.39968,13.6461942 348.8768,38.4741207 C371.0976,60.1247244 384.9216,88.1503412 388.62848,118.467297 C457.6768,124.628451 511.98976,182.563675 511.98976,252.892493 C511.98976,327.304987 451.16416,387.847244 376.44288,387.847244 L376.45312,387.847244 Z M375.42912,359.536483 L376.45312,359.536483 C435.51744,359.536483 483.56352,311.693333 483.56352,252.88231 C483.56352,194.08147 435.51744,146.23832 376.45312,146.23832 L375.37792,146.23832 C367.6672,146.23832 361.34912,140.128084 361.17504,132.429186 C359.84384,74.9929659 311.81824,28.2903937 254.1056,28.2903937 C196.39296,28.2903937 148.34688,75.0133333 147.02592,132.449554 C146.85184,140.005879 140.73856,146.095748 133.14048,146.268871 C75.4688,147.592756 28.54912,195.415538 28.54912,252.892493 C28.54912,311.703517 76.5952,359.546667 135.65952,359.546667 L136.52992,359.546667 L136.86784,359.526299 C137.17504,359.526299 137.48224,359.526299 137.78944,359.546667 L375.3984,359.546667 L375.42912,359.536483 Z M323.60448,244.79643 C315.05408,239.246299 314.63424,229.052388 314.61376,228.604304 C314.55232,225.834331 312.27904,223.655013 309.49376,223.695748 C306.70848,223.746667 304.49664,226.038005 304.54784,228.787612 C304.56832,229.154226 304.71168,233.940577 307.00544,239.582362 C276.57216,268.259738 228.75136,268.300472 198.25664,239.755486 C200.61184,234.032231 200.76544,229.164409 200.76544,228.797795 C200.81664,226.048189 198.61504,223.777218 195.85024,223.705932 C193.11616,223.624462 190.79168,225.844514 190.69952,228.594121 C190.69952,229.00147 190.28992,239.236115 181.71904,244.786247 C179.38432,246.313806 178.72896,249.419843 180.25472,251.731549 C181.21728,253.198005 182.81472,254.00252 184.4736,254.00252 C185.41568,254.00252 186.368,253.737743 187.21792,253.187822 C189.41952,251.7621 191.26272,250.132703 192.80896,248.40147 C209.74592,263.575223 231.14752,271.1621 252.54912,271.1621 C274.00192,271.1621 295.45472,263.544672 312.4224,248.299633 C313.97888,250.051234 315.84256,251.721365 318.1056,253.187822 C318.94528,253.737743 319.90784,254.00252 320.84992,254.00252 C322.48832,254.00252 324.096,253.187822 325.0688,251.721365 C326.58432,249.399475 325.92896,246.283255 323.60448,244.776063 L323.60448,244.79643 Z" fill="url(#cozy-gradient)"/>
    </g>
</svg>