<svg xmlns="http://www.w3.org/2000/svg" width="20" height="20" viewBox="69.35 14.7 20 20">
  <path fill="#c0d028" d="M76.976 21.467h5.714v5.564h-5.714z"/>
  <path fill="#fff" stroke="#808285" stroke-width=".423" d="M86.656 24.09h3.502v3.502h-3.502z" transform="matrix(.915 0 0 .89088 5.988 1.322)"/>
  <path fill="#fff" stroke="#808285" stroke-width=".676" d="M78.469 15.355h4.515v4.515h-4.515z" transform="matrix(.915 0 0 .89088 5.988 1.322)"/>
  <path fill="#fff" stroke="#808285" stroke-width="1.056" d="M69.777 22.95h5.569v5.571h-5.569z" transform="matrix(.915 0 0 .89088 5.988 1.322)"/>
  <path fill="#fff" stroke="#808285" stroke-width=".423" d="M70.832 30.842h3.46v3.46h-3.46z" transform="matrix(.915 0 0 .89088 5.988 1.322)"/>
  <path fill="#fff" stroke="#808285" stroke-width=".845" d="M77.878 31.39h5.654v5.654h-5.654z" transform="matrix(.915 0 0 .89088 5.988 1.322)"/>
  <path fill="#fff" stroke="#808285" stroke-width=".634" d="M86.022 30.546h4.768v4.769h-4.768z" transform="matrix(.915 0 0 .89088 5.988 1.322)"/>
</svg>
