<?xml version="1.0" encoding="utf-8"?>
<!-- Generator: Adobe Illustrator 16.0.0, SVG Export Plug-In . SVG Version: 6.00 Build 0)  -->
<!DOCTYPE svg PUBLIC "-//W3C//DTD SVG 1.1//EN" "http://www.w3.org/Graphics/SVG/1.1/DTD/svg11.dtd">
<svg version="1.1" id="Your_Icon" xmlns="http://www.w3.org/2000/svg" xmlns:xlink="http://www.w3.org/1999/xlink" x="0px" y="0px"
	 width="100px" height="61.086px" viewBox="-0.008 16.786 100 61.086" enable-background="new -0.008 16.786 100 61.086"
	 xml:space="preserve">
<polygon points="46.549,16.786 88.035,16.786 99.992,36.109 99.992,55.435 46.549,55.435 "/>
<path d="M67.79,58.143H43.812V26.351H15.188L7.416,44.921V58.27l29.217-0.002v9.74h26.32C62.953,63.993,64.85,60.428,67.79,58.143z
	 M22.642,45.215H11.099l6.382-15.278h19.156v15.278H22.642z"/>
<path d="M99.926,58.143h-16.84c2.94,2.285,4.836,5.852,4.836,9.866h2.104l9.926-2.645L99.926,58.143z"/>
<path d="M75.438,58.145c-5.448,0-9.864,4.416-9.864,9.863c0,5.446,4.416,9.863,9.864,9.863c5.446,0,9.862-4.417,9.862-9.863
	C85.302,62.561,80.886,58.145,75.438,58.145z M75.436,72.02c-2.215,0-4.011-1.797-4.011-4.012c0-2.217,1.796-4.012,4.011-4.012
	c2.217,0,4.013,1.795,4.013,4.012C79.448,70.223,77.652,72.02,75.436,72.02z"/>
<polygon points="32.613,23.959 22.661,23.959 23.858,18.929 31.418,18.929 "/>
<rect x="-0.008" y="60.66" width="34.249" height="4.931"/>
<rect x="-0.008" y="68.009" width="4.932" height="9.863"/>
<rect x="7.315" y="68.009" width="4.932" height="9.863"/>
<rect x="14.638" y="68.009" width="4.931" height="9.863"/>
<rect x="21.987" y="68.009" width="4.931" height="9.863"/>
<rect x="29.31" y="68.009" width="4.931" height="9.863"/>
</svg>
