<svg xmlns="http://www.w3.org/2000/svg" width="933.333" height="933.333" viewBox="0 0 700 700">
  <path d="M338.5 5.1C175.1 13.4 40.6 135.8 17.1 297.5 9.7 348.1 14 402.4 29.2 450c11.7 36.6 28.8 70.2 51.3 100.6C123.8 609 183.6 651.7 253 673.8c21 6.7 46.1 11.8 70.5 14.3 14.1 1.4 50.8 1.4 65 0 80.8-8.3 152.8-42.3 209.6-99 60.9-61 96.1-140.6 99.8-225.9 2.5-58.7-8.2-112-32.9-163.9-41.2-86.4-118.2-152.5-210-180.2-23.7-7.2-52.8-12.4-75.6-13.6-22.4-1.1-26.3-1.2-40.9-.4zm32.5 101c38 6.1 67.1 39.4 68.3 77.9l.2 8 5.7 1.9 5.8 2 29.2-17.1c25.7-15.1 29.9-17.2 34.5-17.6 6.9-.6 9.5.2 13.8 4 4.5 3.9 6.5 7.7 6.5 12.2 0 1.9-2.7 16.2-6 31.8-3.3 15.6-6 28.9-6 29.7 0 .8 3.4 4.9 7.5 9.2 9 9.4 18.1 21.5 23.2 30.8l3.7 6.8 6.1.6c15.8 1.5 28.8 11.1 34.8 25.9 2.1 5.1 2.2 6.7 2.2 41.8 0 41-.2 42.4-7.4 52-7.5 9.9-17.4 15.5-29.6 16.7l-6.1.6-4.3 7.6c-6.4 11.1-19.9 28.8-27.5 35.9-3.6 3.4-6.6 6.5-6.6 7s1.9 3.8 4.2 7.3c9 14 12.1 25.6 10 38.1-.7 4-2 9.3-2.9 11.8-4.4 11.8-14.4 22.5-27 28.7l-7.7 3.8h-13c-11.3 0-13.9-.3-19.1-2.3-14.2-5.5-21.5-12.7-33-32.4-2.2-3.8-4.4-6.8-5-6.8-.5 0-4.1.7-8 1.4-17.4 3.6-32.1 5-53.5 5-22 0-22.6-.1-56.1-6.1-2.4-.5-3.1.4-9.5 11.3-4.2 7.3-8.9 13.8-12.2 17.1-11.9 11.7-32.1 17.1-47.7 12.9-13.5-3.7-25.7-12.3-32-22.6-12-19.7-11.1-38.5 3-60.5 1.9-3 3.5-5.6 3.5-5.8 0-.2-3.7-4.1-8.1-8.8-28.1-29.1-42.8-59.4-47.4-97.9-.6-4.4-.7-4.6-6.3-7-8.1-3.5-20.9-16.3-25-25.1-4.3-9-5.5-15.5-5-26.3.6-10.6 2.9-17.5 9-26.6 7.6-11.4 15.8-14.2 22.4-7.6 2.4 2.4 3.4 4.3 3.4 6.5 0 3.3-3.1 10.4-5.1 11.7-.6.3-2.4 3.4-4 6.8-5.5 11.7-3.3 25.6 5.7 35.2 5.2 5.6 5.7 5.3 6.8-3.6 1.4-11.4 7.5-29.9 14.3-43.5 17.6-34.8 54.2-68 94.3-85.4l7.5-3.3.2-12.6c.1-9.4.6-14.7 2.2-20.6 7.1-26.5 27.1-48.2 52.9-57.2 12.3-4.2 27-5.5 40.2-3.3z"/>
  <path d="M342.8 128.5c-26.3 6.4-45.7 30.9-45.8 57.7v6.6l5.8-1.3c3.1-.8 9.8-2.1 14.7-2.9 8.6-1.5 9.2-1.8 12.6-5.7l3.5-4.2 2.1 3.6 2.1 3.5 6.9-.5c3.7-.3 7-.7 7.2-.9.3-.3-.5-1.7-1.6-3.2-7.4-10.1-6.8-18.1 1.9-24.5 3.9-2.9 11.3-2.7 16.8.4l4.2 2.4 2.7-3.3c3.1-3.7 4.2-3.9 6.4-1.4 1.5 1.7 1.5 2.1-1 5.5l-2.6 3.6 5.2 5.6c2.8 3.1 5.1 6 5.1 6.5s-1.2 2.3-2.6 4c-1.5 1.7-2.4 3.3-2.1 3.6.3.3 5.6 1 11.9 1.5 6.2.6 13.7 1.3 16.6 1.8l5.2.8v-5.1c0-10.1-5.3-23.7-13-33.3-7.6-9.6-20.9-17.9-33.2-20.8-7.8-1.8-21.4-1.8-29 0z"/>
  <path d="M360.1 166.9c-2.4 2.4-2.6 4-.8 6.5 1.3 1.7 1.6 1.6 4.5-2 3.3-4 3.9-5.4 2.3-5.4-.5 0-1.6-.3-2.4-.6-.9-.3-2.5.4-3.6 1.5zm9.1 8.6c-2.8 3.7-3.2 4.7-2.2 6.4.9 1.8 2 2.1 8.6 2.1h7.5l-2.9-4.3c-1.7-2.3-4-5.2-5.3-6.4l-2.4-2.1-3.3 4.3zm104.3 49.7c-16.3 8.5-17.2 8.9-22.5 8.5-3.1-.2-9.7-1.9-15-3.9-26.5-10.1-62.1-14.7-90.5-11.9-77.8 7.8-137.1 52.9-150.1 114.1-2.1 10.1-2.4 32.1-.5 42 2.6 13.9 9.3 30.6 17.3 43.1 6 9.4 18.2 23 28.6 32.1 7.8 6.9 10.4 9.8 11.7 13.3 2.9 7.6 1.8 11.7-7.6 27.7-10.3 17.6-11.5 20.9-10 26.4 2.3 8.5 8.1 12.2 16.8 10.9 6.3-.9 8.3-3.2 19.1-22.1 9.9-17.4 13.6-21.9 19.1-23.4 5.2-1.4 6.7-1.3 16.3 1.5 27.1 7.8 55.6 10.3 82.3 7 11-1.3 19.6-3.1 39.2-8 13.8-3.5 18.5-.1 33.3 24.6 9.6 16 10.5 17.2 14.8 19.1 6.3 2.8 11.5 2 15.9-2.5 3.6-3.5 5.7-9.6 4.6-13.2-.3-1.1-4.8-9.3-10.1-18.3-7.5-12.9-9.6-17.3-10-21.1-.7-7.7 2.1-12.6 12.1-20.9 15.6-13 29.1-30 37.9-47.7 7.9-15.8 9.1-16.6 25.8-17.4l11.5-.6v-61L552 323c-15.8-.7-17-1.5-25.1-16.8-9.3-17.5-17.2-28.5-28.6-39.7-10.2-10.1-13.3-14.8-13.3-20.3 0-1.5 1.3-8.8 2.9-16.2 1.6-7.4 2.9-13.5 2.8-13.6-.1 0-7.8 3.9-17.2 8.8zm12.7 69.8c8.9 2.5 17.6 12.6 19.8 23 4.1 19.4-10.3 37.4-30 37.4-13.2 0-22.2-5.4-27.9-16.7-3-5.8-3.4-7.6-3.4-13.9 0-11.2 4.5-20.1 13.1-26 7.9-5.4 17.8-6.8 28.4-3.8z"/>
  <path d="M470.4 315.9c-7 4.3-6.3 14.6 1.2 17.7 7.3 3 13.9-1.3 13.9-9.2 0-8.1-8.3-12.8-15.1-8.5z"/>
</svg>
