<?xml version="1.0" encoding="UTF-8" standalone="no"?>
<!-- Created with Inkscape (http://www.inkscape.org/) -->

<svg
   xmlns:dc="http://purl.org/dc/elements/1.1/"
   xmlns:cc="http://creativecommons.org/ns#"
   xmlns:rdf="http://www.w3.org/1999/02/22-rdf-syntax-ns#"
   xmlns:svg="http://www.w3.org/2000/svg"
   xmlns="http://www.w3.org/2000/svg"
   xmlns:xlink="http://www.w3.org/1999/xlink"
   xmlns:sodipodi="http://sodipodi.sourceforge.net/DTD/sodipodi-0.dtd"
   xmlns:inkscape="http://www.inkscape.org/namespaces/inkscape"
   width="20"
   height="20"
   id="svg3129"
   version="1.1"
   inkscape:version="0.48.3.1 r9886"
   sodipodi:docname="TheFileIcon.svg"
   inkscape:export-filename="/home/signez/gits/tree/web/☃/TheFileIcon.png"
   inkscape:export-xdpi="90"
   inkscape:export-ydpi="90">
  <defs
     id="defs3131" />
  <sodipodi:namedview
     id="base"
     pagecolor="#ffffff"
     bordercolor="#666666"
     borderopacity="1.0"
     inkscape:pageopacity="0.0"
     inkscape:pageshadow="2"
     inkscape:zoom="1"
     inkscape:cx="-86.431711"
     inkscape:cy="-143.5895"
     inkscape:document-units="px"
     inkscape:current-layer="layer1"
     showgrid="true"
     inkscape:snap-global="false"
     inkscape:window-width="1280"
     inkscape:window-height="998"
     inkscape:window-x="0"
     inkscape:window-y="0"
     inkscape:window-maximized="1">
    <inkscape:grid
       type="xygrid"
       id="grid3164"
       empspacing="5"
       visible="true"
       enabled="true"
       snapvisiblegridlinesonly="true"
       spacingx="1px"
       spacingy="1px" />
  </sodipodi:namedview>
  <metadata
     id="metadata3134">
    <rdf:RDF>
      <cc:Work
         rdf:about="">
        <dc:format>image/svg+xml</dc:format>
        <dc:type
           rdf:resource="http://purl.org/dc/dcmitype/StillImage" />
        <dc:title></dc:title>
      </cc:Work>
    </rdf:RDF>
  </metadata>
  <g
     inkscape:label="Calque 1"
     inkscape:groupmode="layer"
     id="layer1"
     transform="translate(0,-1032.3622)">
    <path
       style="fill:#ffffff;stroke:#5ca42d;stroke-width:2;stroke-linecap:round;stroke-linejoin:round;stroke-miterlimit:4;stroke-opacity:1;stroke-dasharray:none"
       d="M 6.9994539,1035.3638 7,1050.3622 l 11,0 0,-10.4162 -3.967755,-4.1928 3.967755,4.1292 -4.307295,-4.5317 -0.01417,0.023 -0.02124,-0.023 L 7,1035.3638 z"
       id="path3123"
       inkscape:connector-curvature="0"
       sodipodi:nodetypes="ccccccccccc" />
    <path
       d="m 75.875,678.78125 a 7.8472564,7.8472564 0 0 0 -5.4375,2.28125 l -2.125,2.125 a 7.8472564,7.8472564 0 0 0 0,11.125 L 108,734 c -0.10754,3.71918 1.09464,7.46965 3.875,10.25 5.33086,5.33086 14.26289,5.33088 19.59375,0 5.33088,-5.33086 5.33086,-14.26289 0,-19.59375 -2.75952,-2.75953 -6.47614,-3.93353 -10.15625,-3.84375 l -39.75,-39.75 a 7.8472564,7.8472564 0 0 0 -5.6875,-2.28125 z"
       inkscape:href="#path5218"
       id="path3125"
       style="font-size:medium;font-style:normal;font-variant:normal;font-weight:normal;font-stretch:normal;text-indent:0;text-align:start;text-decoration:none;line-height:normal;letter-spacing:normal;word-spacing:normal;text-transform:none;direction:ltr;block-progression:tb;writing-mode:lr-tb;text-anchor:start;baseline-shift:baseline;color:#000000;fill:#ffffff;fill-opacity:1;stroke:none;stroke-width:3;marker:none;visibility:visible;display:inline;overflow:visible;enable-background:accumulate;font-family:Sans;-inkscape-font-specification:Sans"
       xlink:href="#path5218"
       inkscape:original="M 76 686.625 L 73.875 688.75 L 116.5 731.375 C 115.12583 733.67857 115.45491 736.70492 117.4375 738.6875 C 119.77944 741.02944 123.56432 741.02944 125.90625 738.6875 C 128.24819 736.34557 128.24819 732.56069 125.90625 730.21875 C 123.93683 728.24932 120.95402 727.93833 118.65625 729.28125 L 76 686.625 z "
       inkscape:radius="7.8464718"
       sodipodi:type="inkscape:offset"
       transform="matrix(0.22655238,0,0,0.22655238,-15.504666,877.17309)" />
    <path
       sodipodi:type="inkscape:offset"
       inkscape:radius="0.28695482"
       inkscape:original="M 2.15625 1033.0312 C 2.144598 1033.0412 2.134073 1033.0505 2.125 1033.0625 C 2.11461 1033.0616 2.10414 1033.0616 2.09375 1033.0625 C 2.082098 1033.0725 2.071573 1033.0817 2.0625 1033.0938 L 1.5625 1033.5625 C 1.550811 1033.5725 1.540284 1033.5818 1.53125 1033.5938 C 1.5303431 1033.6037 1.5303431 1033.615 1.53125 1033.625 C 1.519598 1033.635 1.509073 1033.6443 1.5 1033.6562 C 1.4990931 1033.6662 1.4990931 1033.6775 1.5 1033.6875 C 1.5062 1033.7095 1.516885 1033.732 1.53125 1033.75 C 1.5303431 1033.76 1.5303431 1033.7712 1.53125 1033.7812 C 1.54032 1033.7932 1.550848 1033.8035 1.5625 1033.8125 L 10.65625 1042.875 C 10.384669 1043.4475 10.498366 1044.1546 10.96875 1044.625 C 11.568161 1045.2243 12.556839 1045.2243 13.15625 1044.625 C 13.753175 1044.0279 13.753213 1043.0657 13.15625 1042.4688 C 12.687554 1042.0001 11.977864 1041.8904 11.40625 1042.1562 L 2.3125 1033.0938 C 2.30343 1033.0818 2.292902 1033.0715 2.28125 1033.0625 C 2.27086 1033.0616 2.26039 1033.0616 2.25 1033.0625 C 2.231493 1033.0485 2.210111 1033.0372 2.1875 1033.0312 C 2.17711 1033.0303 2.16664 1033.0303 2.15625 1033.0312 z "
       style="font-size:medium;font-style:normal;font-variant:normal;font-weight:normal;font-stretch:normal;text-indent:0;text-align:start;text-decoration:none;line-height:normal;letter-spacing:normal;word-spacing:normal;text-transform:none;direction:ltr;block-progression:tb;writing-mode:lr-tb;text-anchor:start;baseline-shift:baseline;color:#000000;fill:#865e25;fill-opacity:1;stroke:none;stroke-width:3;marker:none;visibility:visible;display:inline;overflow:visible;enable-background:accumulate;font-family:Sans;-inkscape-font-specification:Sans"
       id="path3939"
       d="m 2.0625,1032.75 a 0.28698352,0.28698352 0 0 0 0,0.031 0.28698352,0.28698352 0 0 0 -0.0625,0 0.28698352,0.28698352 0 0 0 -0.09375,0.063 c -0.00321,0 0.00511,0.027 0,0.031 -0.00511,0 -0.024753,-0.01 -0.03125,0 -0.012995,0.013 -0.015705,0.011 -0.03125,0.031 l -0.46875,0.4376 c -0.010351,0.01 -0.00938,0.038 -0.03125,0.062 -0.00729,0.01 -0.023597,-0.01 -0.03125,0 a 0.28698352,0.28698352 0 0 0 -0.03125,0.031 c -0.00716,0.01 0.00756,0.021 0,0.031 a 0.28698352,0.28698352 0 0 0 -0.03125,0.094 0.28698352,0.28698352 0 0 0 -0.03125,0.062 c -0.00266,0.029 -0.00266,0.064 0,0.094 a 0.28698352,0.28698352 0 0 0 0,0.031 c 0.00523,0.019 0.023798,0.044 0.03125,0.062 a 0.28698352,0.28698352 0 0 0 0,0.062 c 0.00198,0 0.029135,-0 0.03125,0 a 0.28698352,0.28698352 0 0 0 0,0.062 c 0.00275,0 0.028329,-0 0.03125,0 a 0.28698352,0.28698352 0 0 0 0,0.031 c 0.02585,0.034 0.033203,0.04 0.0625,0.062 l 8.96875,8.9376 c -0.206178,0.6372 -0.06113,1.3451 0.4375,1.8437 0.710981,0.7108 1.851519,0.7108 2.5625,0 0.705897,-0.7061 0.706002,-1.8253 0,-2.5313 -0.498247,-0.4982 -1.207798,-0.6393 -1.84375,-0.4374 l -8.96875,-8.9376 c -0.012925,-0.017 -0.016953,-0.017 -0.03125,-0.031 -0.014297,-0.014 -0.016602,-0.02 -0.03125,-0.031 a 0.28698352,0.28698352 0 0 0 -0.03125,0 0.28698352,0.28698352 0 0 0 -0.03125,-0.031 0.28698352,0.28698352 0 0 0 -0.0625,-0.031 c -0.00724,-0 -0.023607,0 -0.03125,0 -0.019107,-0.01 -0.040636,-0.025 -0.0625,-0.031 a 0.28698352,0.28698352 0 0 0 -0.03125,0 c -0.026902,-0 -0.066848,-0 -0.09375,0 a 0.28698352,0.28698352 0 0 0 -0.0625,0 z" />
  </g>
</svg>
