<?xml version="1.0" encoding="UTF-8"?>
<!DOCTYPE svg PUBLIC "-//W3C//DTD SVG 1.1//EN" "http://www.w3.org/Graphics/SVG/1.1/DTD/svg11.dtd">
<svg version="1.1" xmlns="http://www.w3.org/2000/svg" width="48" height="48" viewBox="0 0 48 48">
  <title>Mozilla Thunderbird Logo</title>
  <radialGradient id="SVGID_1_" cx="1364.6104" cy="-1930.6328" r="90.9971" gradientTransform="matrix(0.205 0 0 -0.205 -254.2424 -369.4973)" gradientUnits="userSpaceOnUse">
    <stop offset="0" stop-color="#000"/>
    <stop offset="0.5" stop-color="#000"/>
    <stop offset="1" stop-color="#000" stop-opacity="0"/>
  </radialGradient>
  <path fill="url(#SVGID_1_)" d="M44.219,26.365c0,10.306-8.354,18.659-18.652,18.659c-10.299,0-18.663-8.354-18.663-18.659c0-10.305,8.354-18.659,18.659-18.659C35.867,7.707,44.219,16.06,44.219,26.365z"/>
  <path fill="#340000" d="M9.038,11.658l-5.241,6.709l2.78,14.148l25.587,8.286l6.121-10.398l-1.794-15.579L16.846,5.759l-7.665,5.716L9.038,11.658z"/>
  <radialGradient id="SVGID_2_" cx="1405.1074" cy="-1982.8042" r="126.3021" gradientTransform="matrix(0.205 0 0 -0.205 -254.2424 -369.4973)" gradientUnits="userSpaceOnUse">
    <stop offset="0" stop-color="#F2BE7F"/>
    <stop offset="1" stop-color="#FFFFDC"/>
  </radialGradient>
  <path fill="url(#SVGID_2_)" d="M36.719,20.388L17.153,27.75L8.16,13.448l-3.924,5.023l2.696,13.728l25.046,8.109l5.885-9.996L36.719,20.388z"/>
  <linearGradient id="SVGID_3_" gradientUnits="userSpaceOnUse" x1="1353.4873" y1="-1886.2114" x2="1347.8073" y2="-1852.7512" gradientTransform="matrix(0.205 0 0 -0.205 -254.2424 -369.4973)">
    <stop offset="0" stop-color="#C3AD7B"/>
    <stop offset="1" stop-color="#A25F00"/>
  </linearGradient>
  <path fill="url(#SVGID_3_)" d="M16.914,29.543L9.464,18.949c-4.168,3.69,0.272,8.406-0.336,9.092c-0.411,0.455-1.37-0.069-2.875-1.573c-2.258-2.255,0.41,2.665,1.64,4.374c0.82,1.14-0.159,1.071-2.938-0.205L4.133,17.241l3.64-4.409l36.206,5.023l-10.662,6.151L16.914,29.543z"/>
  <path fill="#340000" d="M43.04,18.01l-25.887,9.74l-9.38-14.917L7.426,13.05l9.559,15.202l26.198-9.858L43.04,18.01z"/>
  <radialGradient id="SVGID_4_" cx="1403.1055" cy="-1894.1328" r="90.8711" gradientTransform="matrix(0.205 0 0 -0.205 -254.2424 -369.4973)" gradientUnits="userSpaceOnUse">
    <stop offset="0" stop-color="#F2BE7F"/>
    <stop offset="1" stop-color="#FFFFDC"/>
  </radialGradient>
  <path fill="url(#SVGID_4_)" d="M36.719,20.388l-0.388-3.362L8.552,12.947l-0.147,0.187L8.16,13.448l8.993,14.302L36.719,20.388z"/>
  <linearGradient id="SVGID_5_" gradientUnits="userSpaceOnUse" x1="1333.5117" y1="-1978.5034" x2="1335.8235" y2="-1971.3778" gradientTransform="matrix(0.205 0 0 -0.205 -254.2424 -369.4973)">
    <stop offset="0" stop-color="#AA944B"/>
    <stop offset="1" stop-color="#AA944B" stop-opacity="0"/>
  </linearGradient>
  <path fill="url(#SVGID_5_)" d="M6.932,32.199l25.046,8.109l0.692-1.18L6.594,30.475L6.932,32.199z"/>
  <path fill="#7B5516" d="M36.723,16.833l-0.392,0.193l0.388,3.362l-4.589,1.727c2.264,4.849,0.556,10.915,0.562,10.915c3.508-1.876,4.428-7.259,4.598-11.351L36.723,16.833z"/>
  <path fill="#7B5516" d="M25.878,16.411c3.539,0.963,5.167,3.379,6.258,5.704l4.585-1.727l-0.388-3.362l-3.662-0.538l-0.241,1.163L25.878,16.411z"/>
  <linearGradient id="SVGID_6_" gradientUnits="userSpaceOnUse" x1="1288.2754" y1="-1891.1548" x2="1288.2754" y2="-1865.1934" gradientTransform="matrix(0.205 0 0 -0.205 -254.2424 -369.4973)">
    <stop offset="0.01" stop-color="#D2B170"/>
    <stop offset="1" stop-color="#A25F00"/>
  </linearGradient>
  <path fill="url(#SVGID_6_)" d="M11.361,13.359l-2.809-0.412l-0.147,0.187L8.16,13.448l3.033,4.823l0.017-0.002c0.133-0.812,0.392-1.454,0.397-1.454c0.006,0,0.015,0.039,0.051,0.103l-0.039-0.894c-0.016-0.726-0.213-1.712-0.252-2.664H11.361z"/>
  <linearGradient id="SVGID_7_" gradientUnits="userSpaceOnUse" x1="1338.873" y1="-1931.3857" x2="1338.873" y2="-1878.4302" gradientTransform="matrix(0.205 0 0 -0.205 -254.2424 -369.4973)">
    <stop offset="0" stop-color="#A25F00" stop-opacity="0"/>
    <stop offset="1" stop-color="#A25F00"/>
  </linearGradient>
  <path fill="url(#SVGID_7_)" d="M25.878,16.411c0,0-2.778-0.605-4.72-0.742c-1.941-0.138-4.363,1.78-5.126,2.239c-0.406,0.244-0.863,0.492-1.349,0.75c0.039,1.93,0.506,6.114,3.658,7.862c-0.008-10.252,7.537-10.109,7.544-10.109H25.878z"/>
  <path d="M15.614,35.01l-8.682-2.811l-1.029-4.314l-1.821-0.597c0,0,1.896,5.946,5.278,10.724c6.854,4.777,5.179,2.45,5.186,2.45c1.226,0.718,2.046,0.718,2.052,0.718c-0.004-0.718-3.08-0.871-3.945-5.741c0.918,1.845,4.609,2.87,4.82,2.665c0.135-0.137-0.45-1.145-1.755-3.023L15.614,35.01z"/>
  <linearGradient id="SVGID_8_" gradientUnits="userSpaceOnUse" x1="1282.5801" y1="-1994.7744" x2="1282.5801" y2="-1972.9629" gradientTransform="matrix(0.205 0 0 -0.205 -254.2424 -369.4973)">
    <stop offset="0" stop-color="#A4D8E5"/>
    <stop offset="0.5" stop-color="#0C418F"/>
    <stop offset="1" stop-color="#000060"/>
  </linearGradient>
  <path fill="url(#SVGID_8_)" d="M13.053,39.848c0,0-4.378-0.298-8.104-7.686c-2.2-7.643,2.903,4.396,8.109,7.686H13.053z"/>
  <linearGradient id="SVGID_9_" gradientUnits="userSpaceOnUse" x1="1269.082" y1="-1977.5093" x2="1269.082" y2="-1948.7203" gradientTransform="matrix(0.205 0 0 -0.205 -254.2424 -369.4973)">
    <stop offset="0" stop-color="#A4D8E5"/>
    <stop offset="0.5" stop-color="#0C418F"/>
    <stop offset="1" stop-color="#000060"/>
  </linearGradient>
  <path fill="url(#SVGID_9_)" d="M2.784,22.99c0,0,0.529,11.525,6.379,13.422c-2.978-4.049-3.822-11.943-3.816-11.943L2.784,22.99z"/>
  <radialGradient id="SVGID_10_" cx="1295.1045" cy="-1874.1318" r="77.83" gradientTransform="matrix(0.205 0 0 -0.205 -254.2424 -369.4973)" gradientUnits="userSpaceOnUse">
    <stop offset="0" stop-color="#000060"/>
    <stop offset="0.5" stop-color="#0C418F"/>
    <stop offset="1" stop-color="#A4D8E5"/>
  </radialGradient>
  <path fill="url(#SVGID_10_)" d="M6.235,30.313c-1.23,0.256-3.562-4.05-3.479-8.509c0.049-2.973,0.56-5.348,1.532-7.125l1.025,8.458c0,0,0,5.792,0.929,7.177H6.235z"/>
  <path d="M21.972,3.605c0,0-14.046,2.256-17.679,11.072C1.802,20.907,7.44,26.238,8.292,25.392c-0.004,0-3.062-3.98-0.049-9.926C10.246,11.501,14.823,7.548,21.972,3.605z"/>
  <radialGradient id="SVGID_11_" cx="1310.8545" cy="-1861.3813" r="71.4199" gradientTransform="matrix(0.205 0 0 -0.205 -254.2424 -369.4973)" gradientUnits="userSpaceOnUse">
    <stop offset="0" stop-color="#000060"/>
    <stop offset="0.5" stop-color="#0C418F"/>
    <stop offset="1" stop-color="#A4D8E5"/>
  </radialGradient>
  <path fill="url(#SVGID_11_)" d="M21.972,3.605c0,0-14.046,2.256-17.679,11.072C1.802,20.907,7.44,26.238,8.292,25.392c-0.004,0-3.9-4.614-0.459-10.868C10.121,10.355,14.833,6.715,21.972,3.605z"/>
  <linearGradient id="SVGID_12_" gradientUnits="userSpaceOnUse" x1="1300.1016" y1="-1832.4663" x2="1262.5785" y2="-1897.4489" gradientTransform="matrix(0.205 0 0 -0.205 -254.2424 -369.4973)">
    <stop offset="0.01" stop-color="#1B609D"/>
    <stop offset="0.5" stop-color="#9FD2E5"/>
    <stop offset="1" stop-color="#4187B8"/>
  </linearGradient>
  <path fill="url(#SVGID_12_)" d="M4.271,16.353c-0.752,5.023,0.865,3.144,2.125-0.752c-1.253,2.169-2.125,1.589-2.118,0.752H4.271z M5.837,12.875C3.6,17.438,5.71,16.136,8.09,12.8c-1.852,1.691-2.507,0.874-2.247,0.076H5.837z M10.307,8.211c-3.256,2.893-1.159,2.544,1.814,0.67c-2.021,0.742-2.274-0.119-1.809-0.67H10.307z M8,10.271c-3.258,3.562-0.986,2.937,2.075,0.531c-2.141,1.05-2.52,0.129-2.069-0.531H8z M14.326,7.391c-1.771,0.496-1.929-0.258-1.493-0.697c-2.987,2.248-1.17,2.094,1.499,0.697H14.326z"/>
  <path d="M35.734,5.886c-1.066-0.997-3.541-1.663-4.943-1.948c-1.208-0.242-2.494-0.32-3.711-0.41c-0.842-0.06-3.236-0.015-4.253,0.09c-2.567,0.266-3.595,1.214-5.659,2.673c-1.893,1.331-4.677,2.781-5.5,5.108c-0.652,1.292-0.065,3.354-0.035,4.624l0.035,0.894c-0.039-0.063-0.057-0.103-0.051-0.103c0.006,0-1.14,2.828,0.133,4.101c0.012-0.115,0.039-0.228,0.084-0.338l-0.082,0.338c0,0,0.556-1.017,1.577-1.548c1.021-0.531,1.958-1,2.721-1.46c0.763-0.459,3.153-2.374,5.102-2.239c1.298,0.091,5.057,0.752,11.278,1.982l0.649-3.143l-1.177-0.888c0.125-0.33,0.221-0.681,0.404-0.98c0.446-0.769,0.502-1.439,0.494-2.317C33.838,10.077,35,9.65,35.68,8.769c0.578-0.771,0.856-2.132,0.061-2.883H35.734z"/>
  <linearGradient id="SVGID_13_" gradientUnits="userSpaceOnUse" x1="1319.8086" y1="-1831.4575" x2="1376.8387" y2="-1888.4877" gradientTransform="matrix(0.205 0 0 -0.205 -254.2424 -369.4973)">
    <stop offset="0" stop-color="#A4D8E5"/>
    <stop offset="0.67" stop-color="#0C418F"/>
    <stop offset="1" stop-color="#000040"/>
  </linearGradient>
  <path fill="url(#SVGID_13_)" d="M35.734,5.886c-1.066-0.997-3.541-1.663-4.943-1.948c-1.208-0.242-2.494-0.32-3.711-0.41c-0.842-0.06-3.236-0.015-4.253,0.09c-2.567,0.266-3.595,1.214-5.659,2.673c-1.893,1.331-4.677,2.781-5.5,5.108c-0.652,1.292-0.065,3.354-0.035,4.624l0.035,0.894c-0.039-0.063-0.057-0.103-0.051-0.103c0.006,0-1.14,2.828,0.133,4.101c0.137-1.333,2.255-2.358,2.262-2.358l1.561-0.785c0.238-0.162,0.892-0.56,1.101-0.769c1.245-0.72,2.288-1.511,3.76-1.657c1.942-0.195,3.779,0.668,5.716,0.459c1.588-0.172,3.759-0.398,5.139-1.277c0.648-0.417,0.666-1.261,1.041-1.889c0.447-0.767,0.503-1.439,0.494-2.317c1.038-0.246,2.201-0.672,2.879-1.554c0.555-0.771,0.833-2.132,0.037-2.883H35.734z"/>
  <path fill="#484848" d="M21.152,2.478c-0.224,0.094-0.451,0.226-0.675,0.383c0.228-0.158,0.455-0.291,0.681-0.383H21.152z M21.152,2.478c-1.975,1.281-2.701,3.931-2.694,3.931c0.201-0.086,0.498-0.463,0.898-0.925c-0.24,0.277-0.445,0.525-0.607,0.695c0.01-0.049,0.814-2.184,2.409-3.701H21.152z M20.537,1.042c-4.408,3.221-4.206,5.807-4.199,5.807c0.063-0.033,0.146-0.092,0.246-0.172c-0.008-0.002-0.125-1.991,3.959-5.635H20.537z M21.629,3.605c-1.017,1.436-0.238,1.743-0.231,1.743C21.404,5.349,21.109,4.871,21.629,3.605z M20.545,4.274c0.326-0.264,0.687-0.502,1.091-0.668c-0.42,0.174-0.779,0.41-1.085,0.668c-0.006,0-0.006,0,0,0H20.545z"/>
  <linearGradient id="SVGID_14_" gradientUnits="userSpaceOnUse" x1="1324.9297" y1="-1843.6299" x2="1314.8765" y2="-1816.001" gradientTransform="matrix(0.205 0 0 -0.205 -254.2424 -369.4973)">
    <stop offset="0" stop-color="#A4D8E5"/>
    <stop offset="1" stop-color="#0C418F"/>
  </linearGradient>
  <path fill="url(#SVGID_14_)" d="M12.122,10.456c2.793-8.528,8.415-9.414,8.421-9.414c-4.413,3.221-4.21,5.807-4.204,5.807c0.722-0.365,3.035-3.619,4.818-4.372c-1.977,1.281-2.704,3.931-2.698,3.931c0.49-0.205,1.518-2.11,3.18-2.803c-1.019,1.436-0.242,1.743-0.236,1.743L12.122,10.456z"/>
  <path d="M45.535,19.593l-8.954-3.736l-0.769,8.663c0.098,0.561,0.164,1.165,0.207,1.805c-0.01-0.106-0.017-0.209-0.019-0.313c-0.744,11.907-7.808,18.005-11.353,19.577c4.455,0.308,7.192-1.242,7.198-1.242c0.007,0-0.597,0.73-2.186,1.703c1.999,0,6.972-1.896,7.952-3.895l0.508,0.205c-0.002,0,9.686-6.768,7.42-22.767H45.535z"/>
  <linearGradient id="SVGID_15_" gradientUnits="userSpaceOnUse" x1="1368.5625" y1="-2029.248" x2="1423.7561" y2="-1933.6617" gradientTransform="matrix(0.205 0 0 -0.205 -254.2424 -369.4973)">
    <stop offset="0.01" stop-color="#B4B4DC"/>
    <stop offset="1" stop-color="#000"/>
  </linearGradient>
  <path fill="url(#SVGID_15_)" d="M35.992,26.011c-0.74,11.907-7.803,18.005-11.349,19.577c8.743-1.902,11.845-12.848,11.355-19.577H35.992z"/>
  <linearGradient id="SVGID_16_" gradientUnits="userSpaceOnUse" x1="1392.5898" y1="-2031.2383" x2="1421.574" y2="-1981.0313" gradientTransform="matrix(0.205 0 0 -0.205 -254.2424 -369.4973)">
    <stop offset="0.01" stop-color="#B4B4DC"/>
    <stop offset="1" stop-color="#000"/>
  </linearGradient>
  <path fill="url(#SVGID_16_)" d="M29.661,46.049c0,0,7.022-2.768,7.849-9.072c3.275,0.461-3.44,8.1-7.843,9.072H29.661z"/>
  <path d="M30.894,15.242c-2.284-3.338-5.803-4.392-9.085-4.392c5.956,0.753,14.721,9.211,9.807,18.592c2.905-3.902,1.915-10.343-0.716-14.2H30.894z"/>
  <path d="M36.02,25.621c-1.594,3.437-4.41,3.82-4.404,3.82s2.354,0.41,4.302-1.948c0.278-0.341,0.289-0.997,0.108-1.872H36.02z"/>
  <linearGradient id="SVGID_17_" gradientUnits="userSpaceOnUse" x1="1439.1709" y1="-1978.9556" x2="1439.1709" y2="-1879.3838" gradientTransform="matrix(0.205 0 0 -0.205 -254.2424 -369.4973)">
    <stop offset="0" stop-color="#6498C1"/>
    <stop offset="0.2" stop-color="#0C418F"/>
    <stop offset="1" stop-color="#000040"/>
  </linearGradient>
  <path fill="url(#SVGID_17_)" d="M45.535,19.593l-8.954-3.736l-0.769,8.663c0.082,0.471,0.141,0.973,0.185,1.5c-0.003-0.005-0.003-0.009,0.004-0.009c0.004,0.104,0.011,0.207,0.022,0.313c-0.01-0.103-0.019-0.203-0.021-0.303c-0.03,0.432-0.067,0.856-0.104,1.275c-0.115,1.865-0.131,5.328,1.023,7.426c0.785-1.188,1.574-2.67,1.85-4.154c0.123,1.508-0.591,3.445-1.29,4.948c0.231,0.263,0.503,0.479,0.813,0.64c0.117,0.049,0.236,0.086,0.361,0.117c0.982-1.215,2.578-3.459,2.992-5.705c0.143,1.771-0.865,4.141-1.655,5.694c3.366-0.921,5.661-8.306,5.708-8.438c-0.004-0.002-0.004-0.002,0.002-0.004c0.263-2.413,0.27-5.149-0.162-8.229H45.535z"/>
  <path fill="#0C418F" d="M40.805,34.424c-0.268,0.67-0.567,1.304-0.834,1.841c1.214-0.334,2.29-1.511,3.176-2.883c-0.797,0.574-1.77,0.892-2.336,1.042H40.805z"/>
  <path fill="#0C418F" d="M37.795,34.768c-0.108,0.259-0.221,0.512-0.328,0.749c0.234,0.263,0.502,0.479,0.814,0.64c0.117,0.049,0.235,0.086,0.361,0.117c0.981-1.215,2.576-3.459,2.99-5.705c-1.123,2.881-2.82,3.865-3.832,4.199H37.795z"/>
  <linearGradient id="SVGID_18_" gradientUnits="userSpaceOnUse" x1="1438.6904" y1="-1956.8853" x2="1438.6904" y2="-1867.8124" gradientTransform="matrix(0.205 0 0 -0.205 -254.2424 -369.4973)">
    <stop offset="0" stop-color="#A4D8E5"/>
    <stop offset="0.2" stop-color="#0C418F"/>
    <stop offset="0.5" stop-color="#000040"/>
  </linearGradient>
  <path fill="url(#SVGID_18_)" d="M38.529,23.648c0.563,3.281-1.641,8.1-1.635,8.1s3.293-0.646,4.747-7.652c0,0-0.31,4.865-0.951,6.012c-0.005,0,3.174-1.486,3.847-7.535c0.672-6.049-3.695-9.74-5.079-9.022C38.535,14.029,38.226,17.395,38.529,23.648z"/>
  <linearGradient id="SVGID_19_" gradientUnits="userSpaceOnUse" x1="1404.6113" y1="-1941.8643" x2="1404.6113" y2="-1890.613" gradientTransform="matrix(0.205 0 0 -0.205 -254.2424 -369.4973)">
    <stop offset="0" stop-color="#A4D8E5"/>
    <stop offset="0.5" stop-color="#0C418F"/>
    <stop offset="1" stop-color="#000060"/>
  </linearGradient>
  <path fill="url(#SVGID_19_)" d="M45.652,20.294c0-0.002,0-0.002,0.006-0.004c-0.332-2.147-0.908-4.187-1.684-6.022c-1.994-4.679-5.309-7.536-9.143-8.714c-8.719-0.82-13.024,5.296-13.018,5.296c3.285,0,6.803,1.054,9.094,4.392c2.633,3.857,3.623,10.297,0.717,14.2c-0.004,0,6.045-0.82,5.436-10.868c-0.004,0,2.149,4.204-0.613,9.996c-0.004,0,5.584-1.384,3.848-12.148c-0.004,0,1.277,2.46,0.873,8.15c-0.004,0,2.303-1.604,2.309-6.51c-0.004,0,1.586,5.177,0.002,8.458c-0.004,0,0.023-0.091,0.145-0.181c0.494-0.419,2.434-2.075,2.035-6.045H45.652z"/>
  <linearGradient id="SVGID_20_" gradientUnits="userSpaceOnUse" x1="1385.6338" y1="-1840.5557" x2="1424.6338" y2="-1895.0557" gradientTransform="matrix(0.205 0 0 -0.205 -254.2424 -369.4973)">
    <stop offset="0" stop-color="#4187B8"/>
    <stop offset="1" stop-color="#074E92"/>
  </linearGradient>
  <path fill="url(#SVGID_20_)" d="M31.279,15.847c1.109,1.839,1.781,3.955,2.02,6.085c0.16,0.435,0.576,1.132,1.15,0.972c0.471-0.135,0.9-0.679,1.179-1.07c0.353-0.511,0.492-1.132,0.83-1.65c0.158-0.256,0.38-0.482,0.41-0.798c0.007-0.111-0.032-0.767,0.194-0.747c-0.006-0.022-0.006-0.043-0.002-0.065c-0.004,0,0.011,0.031,0.041,0.084c0.156,0.135,0.216,0.451,0.281,0.64c0.088,0.297,0.168,0.599,0.248,0.9c0.125,0.517,0.48,1.448,1.143,0.872c0.301-0.269,0.488-0.677,0.652-1.044c0.148-0.357,0.239-0.713,0.299-1.099c0.098-0.73,0.067-1.726,0.611-2.302c-0.015-0.068-0.025-0.136-0.029-0.203c-0.004,0,0.037,0.08,0.109,0.24c0.242,0.162,0.58,0.316,0.871,0.156c0.264-0.149,0.381-0.488,0.459-0.767c0.107-0.427,0.146-0.874,0.236-1.308c0.094-0.499,0.194-1.009,0.16-1.518c0.217,0.502,0.455,0.99,0.651,1.507c0.153,0.428,0.312,0.861,0.347,1.32c0.026,0.39,0.019,0.781,0.072,1.171c0.034,0.31,0.105,0.691,0.383,0.888c0.119-1.663,0.375-3.463-0.158-5.081c-0.871-1.689-2.001-3.252-3.405-4.531c-1.485-1.343-3.246-2.358-5.151-2.944c-8.718-0.82-13.024,5.298-13.018,5.298c1.771,0,3.566,0.308,5.189,1.063c1.749,0.845,3.197,2.227,4.232,3.933H31.279z"/>
  <linearGradient id="SVGID_21_" gradientUnits="userSpaceOnUse" x1="1415.5928" y1="-1878.2056" x2="1388.0631" y2="-1830.5262" gradientTransform="matrix(0.205 0 0 -0.205 -254.2424 -369.4973)">
    <stop offset="0.01" stop-color="#1B609D"/>
    <stop offset="0.5" stop-color="#9FD2E5"/>
    <stop offset="1" stop-color="#4187B8"/>
  </linearGradient>
  <path fill="url(#SVGID_21_)" d="M28.328,7.692c0.588,0.797-0.076,1.066-1.445,0.937c4.109,1.282,3.166,0.15,1.451-0.937H28.328z M32.207,7.112c3.867,0.422,2.836-0.418,1.131-1.083c0.654,0.605,0.112,0.958-1.124,1.083H32.207z M34.982,9.999c0.545,0.888-0.175,1.111-1.602,0.855c4.197,1.708,3.309,0.437,1.607-0.855H34.982z M36.924,8.945c0.547,0.89-0.172,1.111-1.6,0.855c4.197,1.708,3.31,0.437,1.605-0.855H36.924z M28.191,9.792c4.203,1.708,3.314,0.437,1.613-0.855c0.539,0.888-0.181,1.109-1.605,0.855H28.191z M32.115,10.216c0.545,0.888-0.174,1.109-1.602,0.855c4.197,1.708,3.31,0.437,1.607-0.855H32.115z M35.669,8.061c-0.31-0.24-0.806-0.517-1.366-0.779c0.719,0.754,0.061,1.122-1.388,1.173c3.146,0.553,3.511,0.192,2.778-0.384c4.406,0.769,3.272-0.283,1.346-1.181c0.701,0.746,0.059,1.113-1.364,1.17H35.669z M31.154,9.734c4.469,0.785,3.332-0.271,1.396-1.173c0.715,0.752,0.057,1.122-1.391,1.173H31.154z M31.164,7.432c0.283,0.511-0.293,0.74-1.385,0.74c3.645,0.775,2.929-0.058,1.426-0.861c-0.043-0.256-0.578-0.738-1.253-1.22c0.488,0.746-0.123,0.956-1.351,0.775c1.66,0.619,2.396,0.73,2.568,0.566H31.164z M37.604,11.705c4.044,2.52,3.353,1.045,1.821-0.597c0.401,1.017-0.385,1.117-1.815,0.597H37.604z M35.455,12.644c4.044,2.52,3.352,1.045,1.821-0.597c0.399,1.017-0.386,1.117-1.814,0.597H35.455z M26.381,9.004c0.547,0.888-0.173,1.111-1.6,0.855c4.197,1.708,3.309,0.437,1.605-0.855H26.381z M39.831,8.996c0.388,0.968-0.358,1.064-1.72,0.568c3.844,2.399,3.184,0.995,1.727-0.568H39.831z M32.628,12.802c4.245,2.647,3.519,1.099,1.911-0.625c0.42,1.066-0.404,1.173-1.904,0.625H32.628z M28.261,10.475c0.546,0.888-0.175,1.109-1.602,0.855c4.197,1.708,3.31,0.437,1.607-0.855H28.261z M31.164,12.08c0.547,0.89-0.172,1.111-1.6,0.855c4.197,1.708,3.31,0.437,1.605-0.855H31.164z M30.658,14.75c3.789,3.638,3.377,1.891,2.1-0.231c0.2,1.191-0.669,1.12-2.094,0.231H30.658z"/>
  <path fill="#4A6EAA" d="M34.514,23.05c-1.402-0.923-1.229-3.211-1.223-3.211c0.114,0.699,1.104,0.529,1.111,0.529c-0.21-0.65-0.191-4.187-0.186-4.187c1.396,5.264,2.391,4.612,1.967-0.563c-0.012,0,2.124,3.947-1.663,7.433H34.514z"/>
  <path fill="#4A6EAA" d="M37.863,20.044c0.358-0.872-0.24-3.966-0.234-3.966s0.476,0.923,1.158,0.685c0,0,0.17-1.505-0.951-2.255c-0.004,0,1.158,0.308,1.473-0.342c-0.011,0,2.415,3.896-1.439,5.878H37.863z"/>
  <linearGradient id="SVGID_22_" gradientUnits="userSpaceOnUse" x1="1303.6699" y1="-1882.04" x2="1347.9393" y2="-1837.7706" gradientTransform="matrix(0.205 0 0 -0.205 -254.2424 -369.4973)">
    <stop offset="0" stop-color="#A5B4D3"/>
    <stop offset="1" stop-color="#A5B4D3" stop-opacity="0.33"/>
  </linearGradient>
  <path fill="url(#SVGID_22_)" d="M13.787,17.122c4.767-0.154,2.239-3.402,8.602-9.553c-5.184,3.008-10.583,2.94-8.595,9.553H13.787z"/>
  <linearGradient id="SVGID_23_" gradientUnits="userSpaceOnUse" x1="1301.4932" y1="-1879.8628" x2="1345.7626" y2="-1835.5934" gradientTransform="matrix(0.205 0 0 -0.205 -254.2424 -369.4973)">
    <stop offset="0" stop-color="#264B92"/>
    <stop offset="1" stop-color="#264B92" stop-opacity="0.33"/>
  </linearGradient>
  <path fill="url(#SVGID_23_)" d="M13.787,17.122c0.838-1.214,3.674-5.93,8.602-9.553c-5.184,3.008-10.583,2.94-8.595,9.553H13.787z"/>
  <path fill="#000064" d="M16.243,15.226c-0.896,0.896-1.969,0.687-2.053-0.494c-0.131-1.669,1.659-1.846,2.438-1.591c0.263,0.756-0.07,1.495-0.379,2.085"/>
  <radialGradient id="SVGID_24_" cx="1311.9355" cy="-1874.3018" r="8.5095" gradientTransform="matrix(0.205 0 0 -0.205 -254.2424 -369.4973)" gradientUnits="userSpaceOnUse">
    <stop offset="0" stop-color="#600000"/>
    <stop offset="0.5" stop-color="#C00000"/>
    <stop offset="1" stop-color="#F6AA00"/>
  </radialGradient>
  <path fill="url(#SVGID_24_)" d="M16.329,15.002c-0.289,0.539-0.964,0.756-1.337,0.554c-0.381-0.203-0.379-0.882-0.084-1.421c0.285-0.54,1.544-0.297,1.55-0.297C16.464,13.837,16.618,14.465,16.329,15.002z"/>
  <radialGradient id="SVGID_25_" cx="1312.9648" cy="-1872.2422" r="3.7997" gradientTransform="matrix(0.205 0 0 -0.205 -254.2424 -369.4973)" gradientUnits="userSpaceOnUse">
    <stop offset="0.01" stop-color="#FFF"/>
    <stop offset="1" stop-color="#000"/>
  </radialGradient>
  <path fill="url(#SVGID_25_)" d="M15.056,15.035c0.263,0.328,0.665,0.445,0.902,0.26c0.228-0.187,0.332-0.734,0.074-1.062c-0.267-0.33-0.797-0.313-1.023-0.129c-0.242,0.185-0.217,0.603,0.053,0.931H15.056z"/>
  <radialGradient id="SVGID_26_" cx="1304.8555" cy="-1894.6313" r="12.9691" gradientTransform="matrix(0.205 0 0 -0.205 -254.2424 -369.4973)" gradientUnits="userSpaceOnUse">
    <stop offset="0" stop-color="#769EB8"/>
    <stop offset="1" stop-color="#FFF"/>
  </radialGradient>
  <path fill="url(#SVGID_26_)" d="M14.062,18.488c0,0,0-0.513-0.148-1.025c-1.765,0.599-2.311-0.648-2.305-0.648c0.006,0-1.142,2.828,0.131,4.101c0.137-1.333,2.255-2.358,2.262-2.358"/>
  <path fill="#484848" d="M13.992,18.557l0.07-0.069c0,0,0-0.513-0.148-1.025c-2.807,1.503-2.175,3.453-2.169,3.453c0.129-1.333,2.247-2.358,2.253-2.358H13.992z"/>
  <radialGradient id="SVGID_27_" cx="1300.6055" cy="-1889.6313" r="3.7782" gradientTransform="matrix(0.205 0 0 -0.205 -254.2424 -369.4973)" gradientUnits="userSpaceOnUse">
    <stop offset="0.01" stop-color="#FFF"/>
    <stop offset="1" stop-color="#000"/>
  </radialGradient>
  <path fill="url(#SVGID_27_)" d="M11.732,18.652c0,0,0.015-0.847,0.4-1.001c-0.004,0.167,0.193,0.295,0.392,0.295c-0.537,0.053-0.792,0.706-0.785,0.706H11.732z"/>
  <path fill="#FFF" fill-opacity="0.25" d="M12.122,10.456l0.004-0.002c-0.191,0.299-0.353,0.611-0.466,0.945c-0.56,1.107-0.209,2.78-0.074,4.033c0.117,0.441,0.254,0.894,0.502,1.142l0.303,0.103c-0.006-0.699,0.242-1.347,0.211-2.051c-0.047-0.853-0.271-1.708-0.099-2.563c0.142-0.752,0.589-1.404,0.771-2.151c0.22-0.929,0.193-1.929,0.324-2.876c-0.552,0.976-1.05,2.105-1.472,3.42"/>
</svg>